<?xml version="1.0" encoding="UTF-8" standalone="no"?>
<!-- Created with Inkscape (http://www.inkscape.org/) -->

<svg
   xmlns:dc="http://purl.org/dc/elements/1.1/"
   xmlns:cc="http://creativecommons.org/ns#"
   xmlns:rdf="http://www.w3.org/1999/02/22-rdf-syntax-ns#"
   xmlns:svg="http://www.w3.org/2000/svg"
   xmlns="http://www.w3.org/2000/svg"
   xmlns:sodipodi="http://sodipodi.sourceforge.net/DTD/sodipodi-0.dtd"
   xmlns:inkscape="http://www.inkscape.org/namespaces/inkscape"
   width="225.77776mm"
   height="225.78006mm"
   viewBox="0 0 799.99992 800.00808"
   id="svg4415"
   version="1.1"
   inkscape:version="0.91 r13725"
   sodipodi:docname="GearWheel.svg">
  <defs
     id="defs4417" />
  <sodipodi:namedview
     id="base"
     pagecolor="#ffffff"
     bordercolor="#666666"
     borderopacity="1.0"
     inkscape:pageopacity="0.0"
     inkscape:pageshadow="2"
     inkscape:zoom="0.83749154"
     inkscape:cx="399.99996"
     inkscape:cy="400.00404"
     inkscape:document-units="px"
     inkscape:current-layer="layer1"
     showgrid="false"
     fit-margin-top="0"
     fit-margin-left="0"
     fit-margin-right="0"
     fit-margin-bottom="0"
     inkscape:window-width="1600"
     inkscape:window-height="837"
     inkscape:window-x="-8"
     inkscape:window-y="-8"
     inkscape:window-maximized="1" />
  <metadata
     id="metadata4420">
    <rdf:RDF>
      <cc:Work
         rdf:about="">
        <dc:format>image/svg+xml</dc:format>
        <dc:type
           rdf:resource="http://purl.org/dc/dcmitype/StillImage" />
        <dc:title></dc:title>
      </cc:Work>
    </rdf:RDF>
  </metadata>
  <g
     inkscape:label="Layer 1"
     inkscape:groupmode="layer"
     id="layer1"
     transform="translate(1198.483,894.87584)">
    <path
       style="fill:#c2b7b5;fill-opacity:1;fill-rule:nonzero;stroke:none"
       id="path8243"
       d="m -809.57828,-894.84032 c -3.67053,0.0674 -7.26228,0.2466 -10.92254,0.6068 -5.28638,0.73114 -10.54474,8.68758 -10.74918,14.30334 -0.20527,5.61229 -0.60667,26.4395 -0.60667,26.4395 -15.54344,1.42899 -30.77426,3.76527 -45.68413,7.10833 -0.0416,-0.12095 -6.83287,-19.53429 -8.75524,-24.79245 -1.80919,-4.94792 -8.45454,-10.50338 -13.60998,-10.40243 -0.34369,0.006 -0.7118,0.028 -1.04024,0.0865 -5.25364,0.93824 -14.1756,4.0231 -21.1516,6.24145 -7.00625,2.22793 -14.06547,4.42134 -20.80486,7.36839 -4.80176,2.32895 -7.3491,11.4999 -5.80816,16.90394 1.54012,5.40072 7.62845,25.31258 7.62845,25.31258 -14.41665,6.22767 -28.32623,13.42709 -41.69626,21.41166 l 0.52012,-0.43344 c 0,-2e-5 -12.57306,-16.55777 -16.03721,-20.97822 -2.59952,-3.31738 -8.25652,-6.0677 -12.91622,-6.15477 -1.5534,-0.0291 -2.9842,0.238 -4.161,0.86687 -4.7066,2.51577 -12.2551,8.30407 -18.2042,12.5696 -5.9749,4.28394 -12.0119,8.55104 -17.5108,13.43646 -3.8469,3.69877 -3.3956,13.19414 -0.2607,17.8575 3.1338,4.66046 14.9967,21.75841 14.9967,21.75841 l 0.6935,-0.52012 c -12.0175,10.52615 -23.2818,21.79042 -33.8079,33.80789 l 0.5201,-0.69349 c 0,0 -17.0977,-11.86318 -21.7583,-14.99684 -2.3318,-1.56777 -5.8483,-2.49722 -9.2756,-2.51392 -3.427,-0.0166 -6.7324,0.85045 -8.5819,2.77398 -3.6988,3.84707 -9.1832,11.6156 -13.5231,17.51076 -4.3588,5.92061 -8.7627,11.85865 -12.4829,18.20424 -2.5158,4.70656 0.8646,13.61115 5.2877,17.07732 4.4206,3.46401 20.9783,16.03708 20.9783,16.03708 l 0.4335,-0.52013 c -7.9846,13.37006 -15.1839,27.27958 -21.4118,41.6964 0,0 -19.8251,-6.08833 -25.2257,-7.62845 -1.3509,-0.38527 -2.9363,-0.44342 -4.5946,-0.34674 -4.974,0.28999 -10.6493,2.55344 -12.396,6.15477 -2.3291,4.80176 -5.0626,13.94382 -7.3686,20.89154 -2.3157,6.97772 -4.6641,13.8803 -6.2414,21.06491 -0.9382,5.25364 5.0381,12.72037 10.3159,14.65009 5.258,1.92248 24.6715,8.71329 24.7924,8.75537 -3.3368,14.88224 -5.6783,30.08382 -7.1083,45.59731 0,0 -20.8273,0.40264 -26.4397,0.60681 -5.6156,0.20444 -13.5719,5.46274 -14.3032,10.74917 -0.7312,5.28643 -0.5609,14.78496 -0.6069,22.10516 -0.047,7.35182 -0.1137,14.69813 0.6069,22.01847 0.7313,5.28643 8.6876,10.54484 14.3032,10.74917 5.6124,0.20417 26.4397,0.60681 26.4397,0.60681 1.4289,15.54322 3.7654,30.77424 7.1083,45.68399 -0.1221,0.0422 -19.5344,6.8329 -24.7924,8.75538 -5.2778,1.92969 -11.2541,9.30976 -10.3159,14.5634 0.9384,5.25361 4.0234,14.26217 6.2414,21.23829 2.2281,7.00629 4.4215,14.06533 7.3686,20.80485 2.329,4.80173 11.5866,7.34908 16.9906,5.80802 5.4006,-1.54008 25.2257,-7.62844 25.2257,-7.62844 6.2279,14.41682 13.4272,28.32633 21.4118,41.69639 l -0.4335,-0.52012 c 0,3e-5 -16.5577,12.57307 -20.9783,16.03707 -4.4231,3.4662 -7.8035,12.37076 -5.2877,17.07732 2.5157,4.70659 8.3042,12.25506 12.5694,18.20425 4.2842,5.9749 8.5511,12.01178 13.4366,17.51075 3.6989,3.84707 13.1942,3.39563 17.8575,0.25992 4.6606,-3.13362 21.7583,-14.99683 21.7583,-14.99683 l -0.5201,-0.69349 c 10.5261,12.01746 21.7904,23.28174 33.8079,33.80788 l -0.6935,-0.52012 c 0,3e-5 -11.8629,17.09796 -14.9967,21.75841 -3.1354,4.66331 -3.587,14.1587 0.2607,17.8575 3.847,3.69875 11.6155,9.18327 17.5108,13.52316 5.9205,4.35867 11.8588,8.76275 18.2042,12.48291 4.7067,2.51578 13.6111,-0.86476 17.07722,-5.2879 3.46415,-4.42034 16.03721,-20.97809 16.03721,-20.97809 l -0.52012,-0.43343 c 13.37003,7.98457 27.27961,15.18399 41.69626,21.41166 -0.0388,0.12427 -6.09305,19.84212 -7.62845,25.22588 -1.54094,5.40402 1.0064,14.66168 5.80816,16.99064 4.80176,2.32892 13.94369,5.06259 20.89141,7.36838 6.97794,2.3158 13.88044,4.66428 21.06505,6.24145 5.25364,0.93827 12.72036,-5.03799 14.65022,-10.31573 1.92237,-5.25819 8.71308,-24.67159 8.75524,-24.79245 14.90987,3.34303 30.14069,5.67933 45.68413,7.10832 0,0 0.40251,20.82721 0.60667,26.4395 0.20528,5.61578 5.4628,13.572225 10.74918,14.303335 7.32025,0.720208 14.66659,0.652995 22.01847,0.606808 7.32025,-0.04605 16.81864,0.124274 22.10529,-0.606808 5.28638,-0.73111 10.54473,-8.687555 10.74918,-14.303335 0.20527,-5.61229 0.60667,-26.4395 0.60667,-26.4395 15.51348,-1.43001 30.71517,-3.77145 45.5973,-7.10832 0.0416,0.12094 6.83287,19.53428 8.75552,24.79245 1.92958,5.27777 9.3963,11.25398 14.64994,10.31573 7.18461,-1.57714 14.08711,-3.9257 21.06506,-6.24145 6.94771,-2.30576 16.08964,-5.03943 20.8914,-7.36838 4.80176,-2.32893 7.34905,-11.58659 5.80816,-16.99064 -1.5354,-5.38376 -7.59044,-25.10155 -7.62845,-25.22588 14.41668,-6.22767 28.3262,-13.42709 41.69626,-21.41166 l -0.52012,0.43343 c 0,0 12.57306,16.55778 16.03707,20.97823 3.4662,4.42317 12.37076,7.80371 17.07732,5.2879 6.34562,-3.72013 12.28366,-8.12424 18.20425,-12.48291 5.89515,-4.3399 13.66371,-9.82442 17.51075,-13.52316 3.84707,-3.69877 3.3956,-13.1941 0.25992,-17.8575 -3.13365,-4.66042 -14.9968,-21.75838 -14.99683,-21.75841 l -0.6935,0.52012 c 12.01747,-10.52614 23.28175,-21.79042 33.80789,-33.80789 l -0.52012,0.6935 c 0,0 17.09799,11.86321 21.75841,14.99683 4.6634,3.13557 14.15876,3.58698 17.8575,-0.25992 4.88545,-5.49894 9.15256,-11.53588 13.43647,-17.51075 4.26552,-5.94919 10.05385,-13.49766 12.5696,-18.20425 2.5158,-4.70653 -0.86476,-13.61112 -5.2879,-17.07732 -4.42045,-3.46401 -20.97826,-16.03707 -20.97823,-16.03707 l -0.43343,0.52012 c 7.98457,-13.37006 15.18399,-27.27958 21.41166,-41.6964 0,0 19.82522,6.08834 25.22588,7.62845 5.40408,1.54103 14.66168,-1.00623 16.99063,-5.80802 2.94708,-6.7395 5.14047,-13.79861 7.36839,-20.80486 2.21835,-6.97611 5.30321,-15.98464 6.24146,-21.23828 0.93827,-5.25362 -5.03791,-12.63371 -10.31574,-14.5634 -5.25814,-1.92248 -24.67159,-8.7133 -24.79245,-8.75538 3.34303,-14.90975 5.67933,-30.14077 7.10832,-45.68399 0,0 20.82719,-0.40264 26.4395,-0.60681 5.61579,-0.20444 13.5722,-5.46274 14.30334,-10.74917 0.72021,-7.32034 0.65297,-14.66665 0.60681,-22.01847 -0.0461,-7.32021 0.12427,-16.81873 -0.60681,-22.10516 -0.73111,-5.28643 -8.68758,-10.54484 -14.30334,-10.74918 -5.61215,-0.20416 -26.43939,-0.60694 -26.43936,-0.60694 -1.43002,-15.51349 -3.77145,-30.71507 -7.10833,-45.59731 0.12095,-0.0422 19.53426,-6.83292 24.79246,-8.75537 5.27777,-1.9297 11.25403,-9.39647 10.31574,-14.65009 -1.57715,-7.18461 -3.92563,-14.08719 -6.24146,-21.06491 -2.30579,-6.94772 -5.03944,-16.08976 -7.36839,-20.89154 -2.03782,-4.20156 -9.32523,-6.63487 -14.73677,-6.15477 -0.77308,0.0685 -1.57837,0.15423 -2.25386,0.34674 -5.40069,1.54012 -25.22586,7.62848 -25.22588,7.62845 -6.22767,-14.41682 -13.4271,-28.32634 -21.41167,-41.6964 l 0.43344,0.52013 c 0,0 16.55781,-12.5731 20.97823,-16.03708 4.42316,-3.4662 7.8037,-12.37076 5.2879,-17.07732 -3.72013,-6.34562 -8.12424,-12.28365 -12.48291,-18.20424 -4.3399,-5.89516 -9.82442,-13.66369 -13.52316,-17.51076 -1.84939,-1.92353 -5.15481,-2.79068 -8.582,-2.77398 -3.4272,0.0166 -6.9438,0.94615 -9.2755,2.51392 -4.66043,3.13366 -21.75838,14.99684 -21.75841,14.99684 l 0.52012,0.69349 c -10.52615,-12.01747 -21.79042,-23.28174 -33.80789,-33.80789 l 0.6935,0.52012 c 0,0 11.86323,-17.09795 14.99683,-21.75841 3.13557,-4.66336 3.58701,-14.15875 -0.25992,-17.8575 -5.49895,-4.88545 -11.53585,-9.15252 -17.51075,-13.43646 -5.94919,-4.26553 -13.49764,-10.05383 -18.20425,-12.5696 -1.17664,-0.62895 -2.60768,-0.89589 -4.16097,-0.86687 -4.65985,0.0871 -10.31674,2.83739 -12.91635,6.15477 -3.46401,4.42042 -16.03705,20.97822 -16.03707,20.97822 l 0.52012,0.43344 c -13.37006,-7.98457 -27.27958,-15.18399 -41.6964,-21.41166 0,0 6.08834,-19.91189 7.62845,-25.31258 1.54103,-5.40407 -1.00612,-14.57504 -5.80788,-16.90394 -6.73967,-2.94708 -13.79862,-5.14049 -20.80486,-7.36839 -6.97628,-2.21835 -15.89824,-5.30321 -21.1516,-6.24145 -0.65688,-0.11734 -1.37007,-0.16977 -2.08049,-0.0865 -4.97374,0.58093 -10.88121,5.78436 -12.56973,10.40243 -1.92237,5.25816 -8.71335,24.67159 -8.75524,24.79245 -14.88241,-3.33688 -30.08382,-5.67834 -45.59731,-7.10833 0,0 -0.40278,-20.82721 -0.60694,-26.4395 -0.20528,-5.61576 -5.4628,-13.5722 -10.74918,-14.30334 -5.28637,-0.73113 -14.78504,-0.56084 -22.10502,-0.6068 -3.67608,-0.0222 -7.42539,-0.0674 -11.09592,0 z m -42.12983,119.62791 -10.05568,192.87833 -186.89691,-49.75827 c 40.3392,-73.32721 112.04577,-127.07123 196.95259,-143.12006 z m 106.36496,0 c 84.92902,16.02678 156.59628,69.78769 196.95248,143.12006 l -186.81025,49.75827 -10.14223,-192.87833 z m -336.08525,243.59016 180.48214,69.69627 -105.49804,162.27786 c -47.9505,-51.0476 -77.3248,-119.7085 -77.3248,-195.21888 0,-12.45429 0.7906,-24.72069 2.3407,-36.75525 z m 565.89206,0 c 1.55019,12.03456 2.34055,24.30096 2.34055,36.75525 0,75.55429 -29.41127,144.24884 -77.4114,195.30556 l -105.41126,-162.36454 180.48211,-69.69627 z m -282.94601,144.24699 121.88177,150.40176 c -36.97716,17.52096 -78.26814,27.39306 -121.88177,27.39306 -43.61336,0 -84.90461,-9.8721 -121.88177,-27.39306 l 121.88177,-150.40176 z"
       inkscape:connector-curvature="0" />
  </g>
</svg>
