<?xml version="1.0" encoding="UTF-8" ?>
<!DOCTYPE svg PUBLIC "-//W3C//DTD SVG 1.1//EN" "http://www.w3.org/Graphics/SVG/1.1/DTD/svg11.dtd">
<svg width="1541pt" height="1532pt" viewBox="0 0 1541 1532" version="1.1" xmlns="http://www.w3.org/2000/svg" transform="rotate(6)">
<path fill="#090909" opacity="0.95" d=" M 689.98 0.00 L 690.86 0.00 C 729.98 10.62 737.11 58.20 770.87 75.48 C 792.91 65.05 801.14 40.14 817.36 23.39 C 823.78 10.15 838.68 7.18 850.10 0.00 L 851.87 0.00 C 887.38 18.90 885.32 66.08 914.19 90.54 C 950.65 81.21 966.92 34.10 1007.75 34.23 C 1041.83 57.02 1027.13 106.45 1051.93 134.79 C 1089.64 133.22 1115.72 89.94 1155.54 99.80 C 1182.81 129.80 1158.70 173.98 1176.46 207.05 C 1213.42 212.93 1248.78 177.56 1285.56 194.32 C 1304.28 229.63 1275.60 266.96 1283.14 303.39 C 1318.27 316.96 1361.86 289.25 1393.77 314.65 C 1403.60 353.19 1367.89 382.97 1368.38 419.92 C 1399.16 442.08 1447.13 421.95 1473.70 453.27 C 1477.10 493.72 1432.93 515.31 1427.36 552.51 C 1453.73 578.66 1501.29 570.90 1522.60 604.82 C 1520.49 646.28 1469.75 658.06 1457.41 693.68 C 1477.82 725.00 1527.61 727.07 1539.70 765.85 C 1526.85 804.47 1477.26 806.31 1457.32 838.07 C 1471.12 872.97 1519.49 885.87 1523.12 926.34 C 1501.58 960.38 1454.30 952.68 1427.31 978.56 C 1432.27 1016.20 1478.69 1038.42 1473.22 1079.08 C 1445.25 1108.75 1400.04 1090.68 1368.15 1110.68 C 1366.97 1148.61 1405.56 1179.45 1392.74 1218.36 C 1379.49 1223.36 1366.45 1232.22 1351.54 1227.59 C 1328.89 1228.16 1305.12 1218.24 1283.18 1227.49 C 1275.66 1264.21 1304.11 1301.79 1285.45 1337.52 C 1248.19 1354.04 1214.08 1318.39 1176.98 1324.34 C 1157.74 1356.85 1183.33 1403.20 1154.42 1432.06 C 1114.53 1440.37 1089.19 1398.25 1051.69 1396.20 C 1027.33 1425.27 1041.57 1474.28 1007.90 1497.59 C 967.03 1496.97 950.64 1450.55 914.28 1441.16 C 884.96 1464.59 888.33 1514.42 850.84 1530.75 C 811.31 1521.84 804.16 1473.36 770.90 1456.20 C 737.33 1472.87 730.32 1521.34 690.89 1530.68 C 653.39 1514.94 656.37 1464.33 626.70 1441.05 C 590.18 1450.40 574.18 1497.16 533.19 1497.48 C 500.74 1473.63 513.01 1425.60 489.50 1396.24 C 451.71 1398.27 425.49 1441.71 385.62 1431.32 C 359.07 1401.27 381.43 1357.88 365.11 1324.56 C 327.93 1317.83 292.20 1354.44 255.26 1336.72 C 236.62 1301.10 267.16 1263.80 257.56 1227.62 C 222.68 1214.30 180.55 1242.16 148.35 1217.50 C 136.07 1178.83 174.30 1148.41 172.74 1111.15 C 141.48 1089.80 93.90 1109.28 67.36 1077.96 C 65.04 1037.79 108.59 1015.86 113.66 978.60 C 88.89 953.55 44.51 960.94 22.66 931.28 C 18.48 928.54 17.14 924.05 19.53 919.74 C 26.64 884.87 66.60 872.66 82.20 843.06 C 86.92 836.20 78.18 830.36 74.55 825.44 C 49.02 807.43 14.43 797.64 1.46 766.56 C 12.78 727.47 63.15 724.92 83.74 693.81 C 71.04 658.59 22.81 646.60 18.26 606.26 C 37.99 570.14 87.50 579.39 113.79 552.42 C 108.72 515.10 63.38 493.02 67.79 452.77 C 95.42 422.27 141.57 441.07 173.06 420.22 C 173.98 382.62 136.31 352.48 148.34 313.57 C 180.81 290.23 222.61 316.91 257.67 303.47 C 266.93 267.31 236.23 229.90 255.43 194.39 C 292.27 177.51 327.56 212.47 364.58 207.17 C 382.33 174.20 358.99 130.22 385.54 99.74 C 425.26 90.43 452.35 133.43 490.00 134.59 C 514.10 105.72 499.33 56.89 533.36 34.14 C 574.41 34.29 590.83 81.40 627.66 90.56 C 655.42 65.54 653.94 18.20 689.98 0.00 M 691.30 12.34 C 657.64 31.61 662.64 80.53 630.43 101.74 C 591.25 97.85 575.38 48.94 536.36 45.24 C 507.60 71.52 523.12 120.38 493.65 145.97 C 455.19 147.42 430.33 106.00 391.84 109.44 C 368.70 140.60 392.83 184.84 371.60 216.71 C 335.73 227.81 303.95 193.42 268.55 201.42 C 259.92 201.39 261.82 213.27 258.61 218.51 C 259.04 249.53 276.91 279.80 266.93 310.79 C 233.25 331.01 190.99 300.00 157.23 320.58 C 150.76 358.54 189.29 387.99 182.86 426.20 C 153.56 451.98 107.59 432.02 78.19 457.32 C 78.60 496.44 124.49 517.56 125.22 556.41 C 100.63 586.56 52.71 577.24 29.41 608.21 C 38.05 645.81 85.59 656.79 95.76 694.12 C 80.02 730.00 28.19 729.86 13.15 765.89 C 28.69 801.50 79.67 801.66 95.74 836.88 C 85.93 874.73 37.64 885.45 29.24 923.71 C 53.40 954.15 102.40 945.01 125.66 975.94 C 122.88 1014.41 79.15 1035.10 78.19 1073.66 C 107.01 1100.29 154.35 1078.98 183.01 1105.56 C 189.17 1143.93 150.35 1173.14 157.48 1211.06 C 191.30 1229.50 231.14 1202.36 265.94 1219.15 C 281.61 1254.71 247.82 1292.82 263.29 1328.65 C 300.66 1340.71 335.44 1302.97 372.55 1315.25 C 391.43 1348.14 369.97 1390.30 391.63 1421.84 C 430.24 1425.91 455.18 1383.70 493.77 1385.03 C 523.45 1410.74 506.56 1460.64 536.42 1485.90 C 575.18 1482.62 591.82 1433.70 630.25 1429.74 C 658.98 1449.51 658.90 1489.27 682.30 1512.69 C 692.28 1525.91 708.94 1512.51 715.43 1502.42 C 733.53 1482.52 743.89 1453.96 770.89 1444.12 C 802.61 1457.31 811.78 1494.77 837.98 1514.12 C 847.82 1522.57 857.23 1515.05 864.77 1507.71 C 880.79 1481.80 885.57 1448.21 911.47 1429.35 C 949.90 1434.77 966.41 1482.56 1005.35 1485.78 C 1033.76 1459.49 1018.74 1411.29 1047.14 1385.14 C 1085.96 1383.72 1111.32 1426.28 1149.93 1421.45 C 1172.75 1390.21 1147.52 1344.84 1170.42 1313.96 C 1207.79 1305.24 1240.83 1339.89 1277.71 1328.83 C 1292.98 1293.03 1259.78 1255.03 1275.30 1219.36 C 1309.77 1202.61 1349.66 1229.57 1383.42 1211.25 C 1391.48 1172.90 1350.63 1142.41 1358.82 1104.23 C 1389.01 1079.82 1434.59 1099.73 1462.91 1073.27 C 1462.12 1034.48 1416.61 1013.36 1415.80 974.63 C 1441.26 945.92 1487.35 953.19 1511.73 923.67 C 1504.05 885.33 1454.02 874.37 1445.48 836.38 C 1463.33 801.99 1511.53 800.55 1528.57 765.96 C 1512.17 730.56 1463.15 729.69 1445.21 694.91 C 1454.98 656.97 1503.28 646.40 1511.76 608.26 C 1490.85 579.29 1447.51 586.19 1422.71 562.33 C 1410.62 556.98 1419.58 544.23 1420.99 535.10 C 1432.53 508.40 1463.59 489.10 1462.82 457.59 C 1433.86 431.15 1386.49 452.00 1357.81 425.48 C 1352.75 387.45 1390.30 358.44 1383.71 320.82 C 1350.44 299.85 1307.51 331.49 1274.04 310.74 C 1261.11 274.58 1293.34 237.84 1277.42 202.37 C 1240.29 191.24 1206.89 227.58 1169.43 216.70 C 1148.49 184.56 1171.66 140.79 1149.49 109.15 C 1110.57 106.29 1084.82 149.15 1046.04 145.29 C 1018.11 118.34 1034.44 69.09 1003.56 45.22 C 965.81 50.76 949.46 96.38 911.44 101.93 C 883.01 83.36 882.40 44.90 861.32 20.68 C 856.44 18.05 852.33 9.72 846.33 13.26 C 812.63 27.82 806.17 73.17 771.45 87.26 C 734.31 75.17 728.60 24.03 691.30 12.34 Z" />
<path fill="#808080" opacity="1.00" d=" M 691.30 12.34 C 728.60 24.03 734.31 75.17 771.45 87.26 C 806.17 73.17 812.63 27.82 846.33 13.26 C 852.33 9.72 856.44 18.05 861.32 20.68 C 882.40 44.90 883.01 83.36 911.44 101.93 C 949.46 96.38 965.81 50.76 1003.56 45.22 C 1034.44 69.09 1018.11 118.34 1046.04 145.29 C 1084.82 149.15 1110.57 106.29 1149.49 109.15 C 1171.66 140.79 1148.49 184.56 1169.43 216.70 C 1206.89 227.58 1240.29 191.24 1277.42 202.37 C 1293.34 237.84 1261.11 274.58 1274.04 310.74 C 1307.51 331.49 1350.44 299.85 1383.71 320.82 C 1390.30 358.44 1352.75 387.45 1357.81 425.48 C 1386.49 452.00 1433.86 431.15 1462.82 457.59 C 1463.59 489.10 1432.53 508.40 1420.99 535.10 C 1419.58 544.23 1410.62 556.98 1422.71 562.33 C 1447.51 586.19 1490.85 579.29 1511.76 608.26 C 1503.28 646.40 1454.98 656.97 1445.21 694.91 C 1463.15 729.69 1512.17 730.56 1528.57 765.96 C 1511.53 800.55 1463.33 801.99 1445.48 836.38 C 1454.02 874.37 1504.05 885.33 1511.73 923.67 C 1487.35 953.19 1441.26 945.92 1415.80 974.63 C 1416.61 1013.36 1462.12 1034.48 1462.91 1073.27 C 1434.59 1099.73 1389.01 1079.82 1358.82 1104.23 C 1350.63 1142.41 1391.48 1172.90 1383.42 1211.25 C 1349.66 1229.57 1309.77 1202.61 1275.30 1219.36 C 1259.78 1255.03 1292.98 1293.03 1277.71 1328.83 C 1240.83 1339.89 1207.79 1305.24 1170.42 1313.96 C 1147.52 1344.84 1172.75 1390.21 1149.93 1421.45 C 1111.32 1426.28 1085.96 1383.72 1047.14 1385.14 C 1018.74 1411.29 1033.76 1459.49 1005.35 1485.78 C 966.41 1482.56 949.90 1434.77 911.47 1429.35 C 885.57 1448.21 880.79 1481.80 864.77 1507.71 C 857.23 1515.05 847.82 1522.57 837.98 1514.12 C 811.78 1494.77 802.61 1457.31 770.89 1444.12 C 743.89 1453.96 733.53 1482.52 715.43 1502.42 C 708.94 1512.51 692.28 1525.91 682.30 1512.69 C 658.90 1489.27 658.98 1449.51 630.25 1429.74 C 591.82 1433.70 575.18 1482.62 536.42 1485.90 C 506.56 1460.64 523.45 1410.74 493.77 1385.03 C 455.18 1383.70 430.24 1425.91 391.63 1421.84 C 369.97 1390.30 391.43 1348.14 372.55 1315.25 C 335.44 1302.97 300.66 1340.71 263.29 1328.65 C 247.82 1292.82 281.61 1254.71 265.94 1219.15 C 231.14 1202.36 191.30 1229.50 157.48 1211.06 C 150.35 1173.14 189.17 1143.93 183.01 1105.56 C 154.35 1078.98 107.01 1100.29 78.19 1073.66 C 79.15 1035.10 122.88 1014.41 125.66 975.94 C 102.40 945.01 53.40 954.15 29.24 923.71 C 37.64 885.45 85.93 874.73 95.74 836.88 C 79.67 801.66 28.69 801.50 13.15 765.89 C 28.19 729.86 80.02 730.00 95.76 694.12 C 85.59 656.79 38.05 645.81 29.41 608.21 C 52.71 577.24 100.63 586.56 125.22 556.41 C 124.49 517.56 78.60 496.44 78.19 457.32 C 107.59 432.02 153.56 451.98 182.86 426.20 C 189.29 387.99 150.76 358.54 157.23 320.58 C 190.99 300.00 233.25 331.01 266.93 310.79 C 276.91 279.80 259.04 249.53 258.61 218.51 C 261.82 213.27 259.92 201.39 268.55 201.42 C 303.95 193.42 335.73 227.81 371.60 216.71 C 392.83 184.84 368.70 140.60 391.84 109.44 C 430.33 106.00 455.19 147.42 493.65 145.97 C 523.12 120.38 507.60 71.52 536.36 45.24 C 575.38 48.94 591.25 97.85 630.43 101.74 C 662.64 80.53 657.64 31.61 691.30 12.34 M 744.54 153.50 C 608.04 159.18 473.77 211.83 370.78 301.78 C 244.01 409.92 165.05 572.02 158.62 738.61 C 155.62 806.36 163.94 874.75 183.22 939.77 C 232.32 1107.93 357.55 1251.97 517.57 1323.43 C 665.95 1392.29 842.06 1395.66 994.02 1336.02 C 1138.45 1279.85 1259.63 1166.59 1325.08 1026.08 C 1368.28 934.01 1389.00 830.94 1381.56 729.35 C 1373.56 566.10 1294.93 408.21 1170.77 302.23 C 1054.67 200.58 898.62 146.46 744.54 153.50 Z" />
<path fill="#090909" opacity="0.95" d=" M 744.54 153.50 C 898.62 146.46 1054.67 200.58 1170.77 302.23 C 1294.93 408.21 1373.56 566.10 1381.56 729.35 C 1389.00 830.94 1368.28 934.01 1325.08 1026.08 C 1259.63 1166.59 1138.45 1279.85 994.02 1336.02 C 842.06 1395.66 665.95 1392.29 517.57 1323.43 C 357.55 1251.97 232.32 1107.93 183.22 939.77 C 163.94 874.75 155.62 806.36 158.62 738.61 C 165.05 572.02 244.01 409.92 370.78 301.78 C 473.77 211.83 608.04 159.18 744.54 153.50 M 767.32 163.46 C 691.63 165.20 614.36 179.28 545.32 207.95 C 591.39 321.09 638.68 433.86 685.39 546.76 C 730.33 530.44 779.94 526.95 826.77 537.83 C 857.50 419.47 890.51 301.60 921.04 183.24 C 870.92 169.95 819.16 164.26 767.32 163.46 M 931.17 185.24 C 899.91 303.87 867.54 422.24 836.22 540.83 C 860.47 548.10 883.94 558.64 904.40 573.68 C 906.36 575.12 909.49 577.26 911.17 574.24 C 985.07 477.79 1059.15 381.45 1133.04 284.99 C 1073.29 238.99 1004.01 204.90 931.17 185.24 M 534.26 211.40 C 465.56 240.94 401.72 282.95 348.97 336.00 C 435.19 423.02 521.96 509.74 608.96 596.02 C 628.69 577.68 652.06 562.31 675.78 550.88 C 630.11 438.22 582.66 326.10 536.56 213.55 C 536.10 212.67 535.69 210.55 534.26 211.40 M 1141.12 291.20 C 1066.88 387.64 992.89 484.34 918.76 580.89 C 916.57 583.36 920.32 585.75 921.86 587.08 C 957.46 616.17 981.85 656.83 996.20 700.09 C 1114.36 668.30 1232.57 636.75 1350.76 605.09 C 1316.43 481.58 1241.79 370.44 1141.12 291.20 M 340.55 344.52 C 251.16 435.84 192.78 555.61 174.29 681.89 C 295.68 698.50 417.26 714.33 538.78 729.96 C 546.47 682.99 568.07 638.45 601.02 603.97 C 514.60 517.47 427.82 428.66 340.55 344.52 M 757.59 542.57 C 697.62 545.52 638.57 573.72 600.53 620.52 C 548.90 679.65 532.14 767.42 559.96 841.05 C 585.21 912.96 649.83 971.14 725.36 984.58 C 769.18 994.51 815.77 989.00 857.24 972.24 C 962.44 930.90 1021.84 801.56 982.91 695.08 C 953.41 601.30 856.10 533.93 757.59 542.57 M 1352.30 615.16 C 1234.23 646.72 1116.09 678.13 998.15 710.11 C 1004.40 734.83 1006.24 760.48 1003.92 785.86 C 1000.81 790.94 1006.11 791.57 1009.05 792.15 C 1128.98 807.37 1248.73 824.50 1368.73 838.83 C 1376.94 764.76 1373.96 685.43 1352.30 615.16 M 173.10 691.95 C 162.25 766.60 169.26 843.47 186.94 916.72 C 305.62 885.32 424.08 852.96 542.81 821.75 C 536.61 795.04 535.04 767.40 537.78 740.15 C 416.26 723.83 294.63 708.17 173.10 691.95 M 1002.25 801.22 C 995.12 848.23 973.22 892.92 940.15 927.12 C 1024.89 1013.19 1111.07 1098.05 1196.20 1183.81 C 1202.20 1192.05 1206.96 1177.76 1211.66 1174.65 C 1295.63 1085.59 1349.19 969.89 1366.89 849.10 C 1245.34 833.23 1123.80 816.99 1002.25 801.22 M 545.23 831.30 C 426.88 862.82 308.70 895.01 190.23 926.07 C 225.20 1049.38 299.01 1160.95 400.04 1240.07 C 474.81 1142.91 549.87 1045.83 623.81 948.08 C 586.27 918.51 559.63 876.62 545.23 831.30 M 932.19 935.23 C 912.40 953.67 889.80 969.19 865.08 980.17 C 911.94 1093.51 958.48 1207.10 1006.06 1320.10 C 1075.56 1291.21 1138.58 1247.80 1192.84 1195.84 C 1106.39 1108.58 1019.50 1021.62 932.19 935.23 M 631.49 955.48 C 556.95 1052.51 482.03 1149.38 408.17 1246.91 C 468.42 1291.97 536.90 1326.79 609.75 1345.90 C 641.62 1227.47 673.95 1108.97 704.72 990.30 C 678.24 983.81 653.93 968.78 631.49 955.48 M 854.31 984.53 C 810.18 1001.61 760.89 1004.64 715.02 993.06 C 683.42 1111.57 650.64 1229.98 620.28 1348.76 C 744.00 1380.12 877.80 1371.39 995.78 1323.77 C 950.64 1211.17 902.86 1099.39 857.05 986.96 C 856.39 985.74 856.18 983.32 854.31 984.53 Z" />
<path fill="#808080" opacity="1.00" d=" M 931.17 185.24 C 1004.01 204.90 1073.29 238.99 1133.04 284.99 C 1059.15 381.45 985.07 477.79 911.17 574.24 C 909.49 577.26 906.36 575.12 904.40 573.68 C 883.94 558.64 860.47 548.10 836.22 540.83 C 867.54 422.24 899.91 303.87 931.17 185.24 Z" />
<path fill="#808080" opacity="1.00" d=" M 534.26 211.40 C 535.69 210.55 536.10 212.67 536.56 213.55 C 582.66 326.10 630.11 438.22 675.78 550.88 C 652.06 562.31 628.69 577.68 608.96 596.02 C 521.96 509.74 435.19 423.02 348.97 336.00 C 401.72 282.95 465.56 240.94 534.26 211.40 Z" />
<path fill="#808080" opacity="1.00" d=" M 757.59 542.57 C 856.10 533.93 953.41 601.30 982.91 695.08 C 1021.84 801.56 962.44 930.90 857.24 972.24 C 815.77 989.00 769.18 994.51 725.36 984.58 C 649.83 971.14 585.21 912.96 559.96 841.05 C 532.14 767.42 548.90 679.65 600.53 620.52 C 638.57 573.72 697.62 545.52 757.59 542.57 M 756.58 608.54 C 691.66 613.34 633.51 662.89 617.98 725.98 C 606.18 768.92 614.90 816.60 639.50 853.50 C 679.43 915.19 764.75 941.07 831.93 910.93 C 908.82 880.75 949.80 784.74 917.63 708.36 C 893.63 644.49 824.62 601.11 756.58 608.54 Z" />
<path fill="#090909" opacity="0.95" d=" M 756.58 608.54 C 824.62 601.11 893.63 644.49 917.63 708.36 C 949.80 784.74 908.82 880.75 831.93 910.93 C 764.75 941.07 679.43 915.19 639.50 853.50 C 614.90 816.60 606.18 768.92 617.98 725.98 C 633.51 662.89 691.66 613.34 756.58 608.54 M 759.63 618.56 C 674.35 622.14 606.30 710.86 625.75 794.26 C 634.91 842.39 669.71 884.73 715.37 902.62 C 763.58 922.73 822.49 914.01 862.85 880.85 C 909.32 844.72 929.93 779.27 911.97 723.06 C 893.74 658.41 826.67 611.87 759.63 618.56 Z" />
<path fill="#808080" opacity="1.00" d=" M 1352.30 615.16 C 1373.96 685.43 1376.94 764.76 1368.73 838.83 C 1248.73 824.50 1128.98 807.37 1009.05 792.15 C 1006.11 791.57 1000.81 790.94 1003.92 785.86 C 1006.24 760.48 1004.40 734.83 998.15 710.11 C 1116.09 678.13 1234.23 646.72 1352.30 615.16 Z" />
<path fill="#808080" opacity="1.00" d=" M 173.10 691.95 C 294.63 708.17 416.26 723.83 537.78 740.15 C 535.04 767.40 536.61 795.04 542.81 821.75 C 424.08 852.96 305.62 885.32 186.94 916.72 C 169.26 843.47 162.25 766.60 173.10 691.95 Z" />
<path fill="#808080" opacity="1.00" d=" M 932.19 935.23 C 1019.50 1021.62 1106.39 1108.58 1192.84 1195.84 C 1138.58 1247.80 1075.56 1291.21 1006.06 1320.10 C 958.48 1207.10 911.94 1093.51 865.08 980.17 C 889.80 969.19 912.40 953.67 932.19 935.23 Z" />
<path fill="#808080" opacity="1.00" d=" M 631.49 955.48 C 653.93 968.78 678.24 983.81 704.72 990.30 C 673.95 1108.97 641.62 1227.47 609.75 1345.90 C 536.90 1326.79 468.42 1291.97 408.17 1246.91 C 482.03 1149.38 556.95 1052.51 631.49 955.48 Z" />
</svg>
