<?xml version="1.0" standalone="no"?>
<!DOCTYPE svg PUBLIC "-//W3C//DTD SVG 20010904//EN"
 "http://www.w3.org/TR/2001/REC-SVG-20010904/DTD/svg10.dtd">
<svg version="1.0" xmlns="http://www.w3.org/2000/svg"
 width="640.000000pt" height="427.000000pt" viewBox="0 0 640.000000 427.000000"
 preserveAspectRatio="xMidYMid meet">

<g transform="translate(0.000000,427.000000) scale(0.100000,-0.100000)"
fill="#000000" stroke="none">
<path d="M1106 4246 c5 -21 -1 -29 -35 -50 -49 -31 -71 -71 -71 -126 0 -54 23
-107 67 -152 32 -33 35 -41 30 -75 -4 -21 -11 -39 -17 -41 -6 -2 -24 -15 -40
-29 -54 -45 -64 -156 -21 -227 16 -27 17 -39 8 -98 l-10 -68 -103 0 c-56 0
-113 -4 -126 -9 -23 -9 -231 -196 -396 -356 -77 -74 -84 -84 -97 -141 -12 -50
-14 -203 -13 -868 1 -503 5 -825 11 -852 9 -40 28 -60 196 -217 102 -95 207
-192 232 -215 l46 -42 2476 0 2475 0 119 106 c65 58 177 158 250 222 l132 117
0 892 1 892 -172 153 c-94 84 -212 189 -261 233 l-90 80 -172 3 -173 3 -6 37
c-10 63 -7 93 13 118 24 31 35 121 21 173 -7 27 -22 49 -45 67 -30 23 -35 32
-35 69 0 35 5 46 25 59 45 30 65 74 65 146 0 71 -20 116 -63 145 -14 9 -27 29
-31 45 -5 28 -9 30 -51 30 -41 0 -45 -2 -45 -25 0 -19 -9 -28 -43 -43 -81 -36
-111 -110 -83 -205 16 -56 53 -98 96 -112 14 -4 20 -15 20 -35 0 -23 -7 -32
-35 -46 -69 -33 -105 -101 -92 -179 10 -61 39 -107 84 -134 25 -15 41 -31 38
-39 -3 -8 -5 -27 -5 -43 l0 -29 -1980 0 -1980 0 0 43 c0 36 5 47 30 65 16 13
37 33 46 47 20 31 34 131 22 171 -10 38 -79 104 -108 104 -16 0 -20 7 -20 34
0 30 5 38 42 58 63 35 82 67 86 146 3 58 0 72 -20 102 -13 19 -41 44 -61 55
-21 11 -40 30 -43 43 -5 19 -13 22 -50 22 -42 0 -44 -1 -38 -24z m4071 -148
c0 -13 -1 -17 -4 -10 -3 6 -10 9 -16 5 -7 -4 -6 1 2 10 17 21 17 21 18 -5z
m131 -42 l-1 -41 -4 40 c-3 22 -10 47 -16 55 -11 13 -10 13 6 1 12 -9 16 -26
15 -55z m-4084 -1 c-3 -16 -8 -39 -11 -50 -5 -18 -4 -19 13 -5 18 14 18 14 5
-3 -14 -18 -16 -18 -34 7 -23 32 -43 33 -74 4 -13 -12 -23 -16 -23 -10 0 7 4
12 8 12 5 0 7 13 4 29 -3 24 -1 29 14 26 11 -2 24 -4 29 -4 6 -1 4 -5 -3 -10
-10 -6 -7 -10 12 -13 14 -3 26 -1 26 3 0 5 -4 9 -10 9 -5 0 -1 9 10 20 11 11
20 26 20 33 0 8 4 7 10 -3 6 -8 7 -28 4 -45z m-127 -17 c-2 -13 -4 -5 -4 17
-1 22 1 32 4 23 2 -10 2 -28 0 -40z m4072 0 c1 20 9 26 29 20 4 -2 6 -6 5 -10
-4 -11 5 -10 28 3 46 24 59 20 59 -17 0 -23 4 -33 11 -28 8 4 8 0 0 -15 -14
-25 -23 -28 -14 -4 4 10 2 14 -5 9 -6 -3 -14 -1 -18 5 -5 8 -3 9 6 4 8 -5 11
-3 8 6 -5 16 -95 22 -104 8 -11 -18 -24 2 -23 34 l2 32 7 -35 c5 -23 8 -27 9
-12z m-3932 -10 c-3 -7 -5 -2 -5 12 0 14 2 19 5 13 2 -7 2 -19 0 -25z m-11
-320 c14 -16 14 -19 2 -10 -14 11 -17 10 -21 -5 -3 -10 -4 -6 -4 10 1 15 2 27
3 27 0 0 9 -10 20 -22z m-116 8 c0 -2 -8 -10 -17 -17 -16 -13 -17 -12 -4 4 13
16 21 21 21 13z m4067 -2 c-3 -4 -2 -16 4 -28 10 -20 9 -20 -5 -2 -14 17 -13
36 1 36 4 0 3 -3 0 -6z m-4077 -47 c0 12 13 11 42 -1 17 -8 69 -3 87 8 15 10
24 -12 16 -42 -4 -18 -9 -22 -14 -13 -6 9 -11 10 -15 3 -4 -6 2 -15 11 -21 10
-6 14 -11 10 -11 -4 0 -21 10 -37 21 -27 21 -31 21 -72 7 -39 -12 -44 -12 -45
2 -1 8 -2 20 -3 25 -1 6 -2 17 -1 25 1 13 2 13 11 0 5 -8 10 -10 10 -3z m4180
-27 c-8 -5 -7 -9 4 -13 10 -4 16 2 19 21 3 24 4 24 3 -3 -1 -21 -5 -29 -16
-26 -50 13 -62 12 -82 -5 -12 -11 -18 -13 -14 -6 4 6 3 12 -3 12 -5 0 -12 -6
-14 -12 -3 -7 -6 2 -6 19 -1 31 1 33 32 32 37 -1 63 4 74 15 4 4 10 0 11 -9 2
-10 -1 -21 -8 -25z m-123 -22 c-2 -13 -4 -5 -4 17 -1 22 1 32 4 23 2 -10 2
-28 0 -40z"/>
</g>
</svg>
