<svg xmlns="http://www.w3.org/2000/svg" width="200" height="40" viewBox="0 0 200 40">
  <!-- Dégradé pour transparence -->
  <defs>
    <linearGradient id="depthEffect" x1="20%" y1="0%" x2="20%" y2="100%">
      <stop offset="0%" stop-color="rgba(0, 0, 0, 0)" />
      <stop offset="50%" stop-color="rgba(0, 0, 0, 0.5)" />
      <stop offset="100%" stop-color="rgba(0, 0, 0, 0)" />
    </linearGradient>

    <!-- Masque pour appliquer l'effet seulement au centre -->
    <mask id="maskEffect">
      <rect x="0" y="0" width="200" height="50" fill="white" radius="10"/>
      <rect x="5" y="23" width="190" height="4" fill="url(#depthEffect)"/>
    </mask>
  </defs>

  <!-- Dents de la crémaillère avec coins arrondis -->
  <rect x="0" y="14" width="10" height="8" fill="#555" rx="3" />
  <rect x="20" y="14" width="10" height="8" fill="#555" rx="3" />
  <rect x="40" y="14" width="10" height="8" fill="#555" rx="3" />
  <rect x="60" y="14" width="10" height="8" fill="#555" rx="3" />
  <rect x="80" y="14" width="10" height="8" fill="#555" rx="3" />
  <rect x="100" y="14" width="10" height="8" fill="#555" rx="3" />
  <rect x="120" y="14" width="10" height="8" fill="#555" rx="3" />
  <rect x="140" y="14" width="10" height="8" fill="#555" rx="3" />
  <rect x="160" y="14" width="10" height="8" fill="#555" rx="3" />
  <rect x="180" y="14" width="10" height="8" fill="#555" rx="3" />
  <rect x="200" y="14" width="10" height="8" fill="#555" rx="3" />
  
  <!-- Rectangle de fond avec dégradé de transparence appliqué -->
  <rect x="0" y="20" width="200" height="10" fill="black" mask="url(#maskEffect)" />
  
  <!-- Barres de transparence ajoutées -->
</svg>
